# Blender 4.5.3 LTS
# www.blender.org
mtllib textured.mtl
o T
v -0.060001 0.020800 0.010000
v 0.060001 0.051401 0.010000
v -0.060001 0.051401 0.010000
v 0.060001 0.020800 0.010000
v -0.015987 0.020800 0.010000
v -0.015987 -0.093000 0.010000
v 0.015987 0.020800 0.010000
v 0.015987 -0.093000 0.010000
v -0.060001 0.020800 -0.010000
v -0.060001 0.051401 -0.010000
v 0.060001 0.051401 -0.010000
v 0.060001 0.020800 -0.010000
v -0.015987 0.020800 -0.010000
v -0.015987 -0.093000 -0.010000
v 0.015987 0.020800 -0.010000
v 0.015987 -0.093000 -0.010000
vn 0.5773 -0.5774 -0.5774
vn 0.5774 -0.5774 0.5773
vn 0.5774 -0.5774 -0.5773
vn -0.0000 -0.0000 1.0000
vn -0.5774 -0.5773 -0.5773
vn -0.5774 -0.5773 0.5774
vn 1.0000 -0.0000 -0.0000
vn -1.0000 -0.0001 -0.0000
vn 1.0000 0.0001 -0.0000
vn -0.5774 0.5774 0.5773
vn -1.0000 0.0001 -0.0000
vn 1.0000 -0.0001 -0.0000
vn -0.5773 -0.5774 0.5773
vn -0.5773 -0.5774 -0.5774
vn -0.5774 0.5774 -0.5773
vn 0.5774 0.5773 -0.5773
vn 0.5774 -0.5773 -0.5773
vn -0.5774 -0.5774 0.5773
vn 0.5774 0.5773 0.5774
vn 0.5774 -0.5773 0.5774
s 1
f 15//1 8//2 16//3
s 0
f 5//4 4//4 1//4
s 1
f 13//5 1//6 9//5
s 0
f 7//4 4//4 5//4
s 1
f 16//3 13//5 15//1
s 0
f 13//7 9//8 12//9
s 1
f 4//2 3//10 1//6
s 0
f 15//7 13//11 12//12
s 1
f 16//3 6//13 14//14
f 9//5 3//10 10//15
f 11//16 4//2 12//17
f 12//17 10//15 11//16
f 14//14 5//18 13//5
f 10//15 2//19 11//16
f 8//2 5//18 6//13
f 12//17 7//20 15//1
f 15//1 7//20 8//2
f 13//5 5//18 1//6
f 16//3 14//14 13//5
f 4//2 2//19 3//10
f 16//3 8//2 6//13
f 9//5 1//6 3//10
f 11//16 2//19 4//2
f 12//17 9//5 10//15
f 14//14 6//13 5//18
f 10//15 3//10 2//19
f 8//2 7//20 5//18
f 12//17 4//2 7//20
