# Blender 4.5.0
# www.blender.org
mtllib lab_scene.mtl
o Cube
v -0.381000 -0.675000 0.600000
v -0.031000 -0.675000 0.650000
v -0.031000 -0.675000 0.600000
v -0.381000 -0.675000 0.650000
v -0.031000 -0.725000 0.650000
v -0.381000 -0.725000 0.650000
v -0.031000 -0.725000 0.600000
v -0.381000 -0.725000 0.600000
v -0.031000 0.675000 0.650000
v -0.381000 0.675000 0.600000
v -0.031000 0.675000 0.600000
v -0.031000 0.725000 0.650000
v -0.381000 0.675000 0.650000
v -0.031000 0.725000 0.600000
v -0.381000 0.725000 0.650000
v -0.381000 0.725000 0.600000
v -0.731000 -0.675000 0.650000
v -0.731000 -0.675000 0.600000
v -0.731000 -0.725000 0.650000
v -0.731000 -0.725000 0.600000
v -0.731000 0.675000 0.650000
v -0.731000 0.675000 0.600000
v -0.731000 0.725000 0.650000
v -0.731000 0.725000 0.600000
v -0.081000 -0.725000 0.600000
v -0.081000 -0.000282 0.650000
v -0.081000 -0.000282 0.600000
v -0.081000 -0.725000 0.650000
v -0.031000 -0.000282 0.650000
v -0.031000 -0.725000 0.650000
v -0.031000 -0.000282 0.600000
v -0.031000 -0.725000 0.600000
v -0.681000 -0.000282 0.650000
v -0.681000 -0.725000 0.600000
v -0.681000 -0.000282 0.600000
v -0.731000 -0.000282 0.650000
v -0.681000 -0.725000 0.650000
v -0.731000 -0.000282 0.600000
v -0.731000 -0.725000 0.650000
v -0.731000 -0.725000 0.600000
v -0.081000 0.000282 0.650000
v -0.081000 0.725282 0.600000
v -0.081000 0.000282 0.600000
v -0.031000 0.000282 0.650000
v -0.081000 0.725282 0.650000
v -0.031000 0.000282 0.600000
v -0.031000 0.725282 0.650000
v -0.031000 0.725282 0.600000
v -0.681000 0.725282 0.600000
v -0.681000 0.000282 0.650000
v -0.681000 0.000282 0.600000
v -0.681000 0.725282 0.650000
v -0.731000 0.000282 0.650000
v -0.731000 0.725282 0.650000
v -0.731000 0.000282 0.600000
v -0.731000 0.725282 0.600000
v -0.762000 0.762000 0.700000
v 0.000000 0.762000 0.650000
v -0.762000 0.762000 0.650000
v 0.000000 0.762000 0.700000
v 0.000000 -0.762000 0.650000
v 0.000000 -0.762000 0.700000
v -0.762000 -0.762000 0.650000
v -0.762000 -0.762000 0.700000
v 0.000000 0.762000 0.700000
v 0.762000 0.762000 0.650000
v 0.000000 0.762000 0.650000
v 0.762000 0.762000 0.700000
v 0.762000 -0.762000 0.650000
v 0.762000 -0.762000 0.700000
v 0.000000 -0.762000 0.650000
v 0.000000 -0.762000 0.700000
v -0.681000 0.675000 0.650000
v -0.731000 0.675000 -0.000000
v -0.681000 0.675000 -0.000000
v -0.731000 0.675000 0.650000
v -0.731000 0.725000 -0.000000
v -0.731000 0.725000 0.650000
v -0.681000 0.725000 -0.000000
v -0.681000 0.725000 0.650000
v -0.356000 -0.675000 0.060000
v -0.031000 -0.675000 0.110000
v -0.031000 -0.675000 0.060000
v -0.356000 -0.675000 0.110000
v -0.031000 -0.725063 0.110000
v -0.356000 -0.725063 0.110000
v -0.031000 -0.725063 0.060000
v -0.356000 -0.725063 0.060000
v -0.031000 0.675000 0.110000
v -0.356000 0.675000 0.060000
v -0.031000 0.675000 0.060000
v -0.031000 0.725000 0.110000
v -0.356000 0.675000 0.110000
v -0.031000 0.725000 0.060000
v -0.356000 0.725000 0.110000
v -0.356000 0.725000 0.060000
v -0.731000 -0.675000 0.110000
v -0.731000 -0.675000 0.060000
v -0.731000 -0.725063 0.110000
v -0.731000 -0.725063 0.060000
v -0.731000 0.675000 0.110000
v -0.731000 0.675000 0.060000
v -0.731000 0.725000 0.110000
v -0.731000 0.725000 0.060000
v -0.081000 -0.725063 0.110000
v -0.031000 -0.725063 0.060000
v -0.031000 -0.725063 0.110000
v -0.356000 -0.000282 0.110000
v -0.356000 -0.725063 0.060000
v -0.356000 -0.000282 0.060000
v -0.406000 -0.000282 0.110000
v -0.356000 -0.725063 0.110000
v -0.406000 -0.000282 0.060000
v -0.406000 -0.725063 0.110000
v -0.406000 -0.725063 0.060000
v -0.031000 0.725282 0.060000
v -0.081000 0.725282 0.110000
v -0.031000 0.725282 0.110000
v -0.356000 0.725282 0.060000
v -0.356000 0.000282 0.110000
v -0.356000 0.000282 0.060000
v -0.356000 0.725282 0.110000
v -0.406000 0.000282 0.110000
v -0.406000 0.725282 0.110000
v -0.406000 0.000282 0.060000
v -0.406000 0.725282 0.060000
v -0.081000 -0.725063 0.060000
v -0.081000 0.725282 0.060000
v -0.731000 -0.675000 0.000000
v -0.681000 -0.675000 0.650000
v -0.681000 -0.675000 0.000000
v -0.731000 -0.725063 0.000000
v -0.731000 -0.675000 0.650000
v -0.681000 -0.725063 0.000000
v -0.731000 -0.725063 0.650000
v -0.681000 -0.725063 0.650000
v -0.081000 -0.675000 0.650000
v -0.031000 -0.675000 0.000000
v -0.081000 -0.675000 0.000000
v -0.031000 -0.675000 0.650000
v -0.031000 -0.725063 0.000000
v -0.031000 -0.725063 0.650000
v -0.081000 -0.725063 0.000000
v -0.081000 -0.725063 0.650000
v -0.031000 0.675000 -0.000000
v -0.081000 0.675000 0.650000
v -0.081000 0.675000 -0.000000
v -0.031000 0.725000 -0.000000
v -0.031000 0.675000 0.650000
v -0.081000 0.725000 -0.000000
v -0.031000 0.725000 0.650000
v -0.081000 0.725000 0.650000
v 0.081000 0.675000 0.650000
v 0.031000 0.675000 -0.000000
v 0.081000 0.675000 -0.000000
v 0.031000 0.675000 0.650000
v 0.031000 0.725000 -0.000000
v 0.031000 0.725000 0.650000
v 0.081000 0.725000 -0.000000
v 0.081000 0.725000 0.650000
v 0.381000 -0.675000 0.600000
v 0.731000 -0.675000 0.650000
v 0.731000 -0.675000 0.600000
v 0.381000 -0.675000 0.650000
v 0.731000 -0.725000 0.650000
v 0.381000 -0.725000 0.650000
v 0.731000 -0.725000 0.600000
v 0.381000 -0.725000 0.600000
v 0.731000 0.675000 0.650000
v 0.381000 0.675000 0.600000
v 0.731000 0.675000 0.600000
v 0.731000 0.725000 0.650000
v 0.381000 0.675000 0.650000
v 0.731000 0.725000 0.600000
v 0.381000 0.725000 0.650000
v 0.381000 0.725000 0.600000
v 0.031000 -0.675000 0.650000
v 0.031000 -0.675000 0.600000
v 0.031000 -0.725000 0.650000
v 0.031000 -0.725000 0.600000
v 0.031000 0.675000 0.650000
v 0.031000 0.675000 0.600000
v 0.031000 0.725000 0.650000
v 0.031000 0.725000 0.600000
v 0.681000 -0.725000 0.600000
v 0.681000 -0.000282 0.650000
v 0.681000 -0.000282 0.600000
v 0.681000 -0.725000 0.650000
v 0.731000 -0.000282 0.650000
v 0.731000 -0.725000 0.650000
v 0.731000 -0.000282 0.600000
v 0.731000 -0.725000 0.600000
v 0.081000 -0.000282 0.650000
v 0.081000 -0.725000 0.600000
v 0.081000 -0.000282 0.600000
v 0.031000 -0.000282 0.650000
v 0.081000 -0.725000 0.650000
v 0.031000 -0.000282 0.600000
v 0.031000 -0.725000 0.650000
v 0.031000 -0.725000 0.600000
v 0.681000 0.000282 0.650000
v 0.681000 0.725282 0.600000
v 0.681000 0.000282 0.600000
v 0.731000 0.000282 0.650000
v 0.681000 0.725282 0.650000
v 0.731000 0.000282 0.600000
v 0.731000 0.725282 0.650000
v 0.731000 0.725282 0.600000
v 0.081000 0.725282 0.600000
v 0.081000 0.000282 0.650000
v 0.081000 0.000282 0.600000
v 0.081000 0.725282 0.650000
v 0.031000 0.000282 0.650000
v 0.031000 0.725282 0.650000
v 0.031000 0.000282 0.600000
v 0.031000 0.725282 0.600000
v 0.406000 -0.675000 0.060000
v 0.731000 -0.675000 0.110000
v 0.731000 -0.675000 0.060000
v 0.406000 -0.675000 0.110000
v 0.731000 -0.725063 0.110000
v 0.406000 -0.725063 0.110000
v 0.731000 -0.725063 0.060000
v 0.406000 -0.725063 0.060000
v 0.731000 0.675000 0.110000
v 0.406000 0.675000 0.060000
v 0.731000 0.675000 0.060000
v 0.731000 0.725000 0.110000
v 0.406000 0.675000 0.110000
v 0.731000 0.725000 0.060000
v 0.406000 0.725000 0.110000
v 0.406000 0.725000 0.060000
v 0.031000 -0.675000 0.110000
v 0.031000 -0.675000 0.060000
v 0.031000 -0.725063 0.110000
v 0.031000 -0.725063 0.060000
v 0.031000 0.675000 0.110000
v 0.031000 0.675000 0.060000
v 0.031000 0.725000 0.110000
v 0.031000 0.725000 0.060000
v 0.681000 -0.725063 0.110000
v 0.731000 -0.725063 0.060000
v 0.731000 -0.725063 0.110000
v 0.406000 -0.000282 0.110000
v 0.406000 -0.725063 0.060000
v 0.406000 -0.000282 0.060000
v 0.356000 -0.000282 0.110000
v 0.406000 -0.725063 0.110000
v 0.356000 -0.000282 0.060000
v 0.356000 -0.725063 0.110000
v 0.356000 -0.725063 0.060000
v 0.731000 0.725282 0.060000
v 0.681000 0.725282 0.110000
v 0.731000 0.725282 0.110000
v 0.406000 0.725282 0.060000
v 0.406000 0.000282 0.110000
v 0.406000 0.000282 0.060000
v 0.406000 0.725282 0.110000
v 0.356000 0.000282 0.110000
v 0.356000 0.725282 0.110000
v 0.356000 0.000282 0.060000
v 0.356000 0.725282 0.060000
v 0.681000 -0.725063 0.060000
v 0.681000 0.725282 0.060000
v 0.031000 -0.675000 0.000000
v 0.081000 -0.675000 0.650000
v 0.081000 -0.675000 0.000000
v 0.031000 -0.725063 0.000000
v 0.031000 -0.675000 0.650000
v 0.081000 -0.725063 0.000000
v 0.031000 -0.725063 0.650000
v 0.081000 -0.725063 0.650000
v 0.681000 -0.675000 0.650000
v 0.731000 -0.675000 0.000000
v 0.681000 -0.675000 0.000000
v 0.731000 -0.675000 0.650000
v 0.731000 -0.725063 0.000000
v 0.731000 -0.725063 0.650000
v 0.681000 -0.725063 0.000000
v 0.681000 -0.725063 0.650000
v 0.731000 0.675000 -0.000000
v 0.681000 0.675000 0.650000
v 0.681000 0.675000 -0.000000
v 0.731000 0.725000 -0.000000
v 0.731000 0.675000 0.650000
v 0.681000 0.725000 -0.000000
v 0.731000 0.725000 0.650000
v 0.681000 0.725000 0.650000
vn -0.0000 1.0000 -0.0000
vn -0.0000 -0.0000 1.0000
vn -0.0000 -1.0000 -0.0000
vn -0.0000 -0.0000 -1.0000
vn 1.0000 -0.0000 -0.0000
vn -1.0000 -0.0000 -0.0000
vt 0.224938 0.077779
vt 0.349675 0.122335
vt 0.224938 0.122335
vt 0.349675 0.077779
vt 0.474412 0.122335
vt 0.474412 0.077779
vt 0.599149 0.122335
vt 0.599149 0.077779
vt 0.723886 0.122335
vt 0.599149 0.166892
vt 0.474412 0.166892
vt 0.474412 0.033222
vt 0.723886 0.077779
vt 0.599149 0.033222
vt 0.224938 0.189170
vt -1.234075 0.992820
vt 0.499999 0.730940
vt 0.499999 0.992820
vt -1.234075 0.730940
vt 0.499999 0.469060
vt 2.234073 0.730940
vt 2.234073 0.992820
vt 2.234073 0.469060
vt -0.078029 0.469060
vt -1.234075 0.207180
vt -0.078029 0.207180
vt 1.078018 0.469060
vt 1.078018 0.207180
vt -1.234075 0.469060
s 1
usemtl lab_table
f 1/1/1 2/2/1 3/3/1
f 4/4/2 5/5/2 2/2/2
f 6/6/3 7/7/3 5/5/3
f 8/8/4 3/9/4 7/7/4
f 5/5/5 3/10/5 2/11/5
f 9/2/3 10/1/3 11/3/3
f 12/5/2 13/4/2 9/2/2
f 14/7/1 15/6/1 12/5/1
f 11/9/4 16/8/4 14/7/4
f 11/10/5 12/5/5 9/11/5
f 17/2/1 1/1/1 18/3/1
f 19/5/2 4/4/2 17/2/2
f 20/7/3 6/6/3 19/5/3
f 18/9/4 8/8/4 20/7/4
f 18/10/6 19/5/6 17/11/6
f 8/8/5 4/12/5 6/6/5
f 10/1/3 21/2/3 22/3/3
f 13/4/2 23/5/2 21/2/2
f 15/6/1 24/7/1 23/5/1
f 16/8/4 22/9/4 24/7/4
f 23/5/6 22/10/6 21/11/6
f 13/12/5 16/8/5 15/6/5
f 1/1/1 4/4/1 2/2/1
f 4/4/2 6/6/2 5/5/2
f 6/6/3 8/8/3 7/7/3
f 8/8/4 1/13/4 3/9/4
f 5/5/5 7/7/5 3/10/5
f 9/2/3 13/4/3 10/1/3
f 12/5/2 15/6/2 13/4/2
f 14/7/1 16/8/1 15/6/1
f 11/9/4 10/13/4 16/8/4
f 11/10/5 14/7/5 12/5/5
f 17/2/1 4/4/1 1/1/1
f 19/5/2 6/6/2 4/4/2
f 20/7/3 8/8/3 6/6/3
f 18/9/4 1/13/4 8/8/4
f 18/10/6 20/7/6 19/5/6
f 8/8/5 1/14/5 4/12/5
f 10/1/3 13/4/3 21/2/3
f 13/4/2 15/6/2 23/5/2
f 15/6/1 16/8/1 24/7/1
f 16/8/4 10/13/4 22/9/4
f 23/5/6 24/7/6 22/10/6
f 13/12/5 10/14/5 16/8/5
f 25/15/6 26/15/6 27/15/6
f 28/15/2 29/15/2 26/15/2
f 30/15/5 31/15/5 29/15/5
f 32/15/4 27/15/4 31/15/4
f 29/15/1 27/15/1 26/15/1
f 28/15/3 32/15/3 30/15/3
f 33/15/5 34/15/5 35/15/5
f 36/15/2 37/15/2 33/15/2
f 38/15/6 39/15/6 36/15/6
f 35/15/4 40/15/4 38/15/4
f 35/15/1 36/15/1 33/15/1
f 40/15/3 37/15/3 39/15/3
f 41/15/6 42/15/6 43/15/6
f 44/15/2 45/15/2 41/15/2
f 46/15/5 47/15/5 44/15/5
f 43/15/4 48/15/4 46/15/4
f 43/15/3 44/15/3 41/15/3
f 48/15/1 45/15/1 47/15/1
f 49/15/5 50/15/5 51/15/5
f 52/15/2 53/15/2 50/15/2
f 54/15/6 55/15/6 53/15/6
f 56/15/4 51/15/4 55/15/4
f 53/15/3 51/15/3 50/15/3
f 52/15/1 56/15/1 54/15/1
f 25/15/6 28/15/6 26/15/6
f 28/15/2 30/15/2 29/15/2
f 30/15/5 32/15/5 31/15/5
f 32/15/4 25/15/4 27/15/4
f 29/15/1 31/15/1 27/15/1
f 28/15/3 25/15/3 32/15/3
f 33/15/5 37/15/5 34/15/5
f 36/15/2 39/15/2 37/15/2
f 38/15/6 40/15/6 39/15/6
f 35/15/4 34/15/4 40/15/4
f 35/15/1 38/15/1 36/15/1
f 40/15/3 34/15/3 37/15/3
f 41/15/6 45/15/6 42/15/6
f 44/15/2 47/15/2 45/15/2
f 46/15/5 48/15/5 47/15/5
f 43/15/4 42/15/4 48/15/4
f 43/15/3 46/15/3 44/15/3
f 48/15/1 42/15/1 45/15/1
f 49/15/5 52/15/5 50/15/5
f 52/15/2 54/15/2 53/15/2
f 54/15/6 56/15/6 55/15/6
f 56/15/4 49/15/4 51/15/4
f 53/15/3 55/15/3 51/15/3
f 52/15/1 49/15/1 56/15/1
f 57/16/1 58/17/1 59/18/1
f 60/19/5 61/20/5 58/17/5
f 62/18/3 63/21/3 61/22/3
f 64/17/6 59/23/6 63/21/6
f 61/24/4 59/25/4 58/26/4
f 60/27/2 64/26/2 62/28/2
f 57/16/1 60/19/1 58/17/1
f 60/19/5 62/29/5 61/20/5
f 62/18/3 64/17/3 63/21/3
f 64/17/6 57/20/6 59/23/6
f 61/24/4 63/29/4 59/25/4
f 60/27/2 57/24/2 64/26/2
f 65/16/1 66/17/1 67/18/1
f 68/19/5 69/20/5 66/17/5
f 70/18/3 71/21/3 69/22/3
f 72/17/6 67/23/6 71/21/6
f 69/24/4 67/25/4 66/26/4
f 68/27/2 72/26/2 70/28/2
f 65/16/1 68/19/1 66/17/1
f 68/19/5 70/29/5 69/20/5
f 70/18/3 72/17/3 71/21/3
f 72/17/6 65/20/6 67/23/6
f 69/24/4 71/29/4 67/25/4
f 68/27/2 65/24/2 72/26/2
f 73/1/3 74/2/3 75/3/3
f 76/4/6 77/5/6 74/2/6
f 78/6/1 79/7/1 77/5/1
f 80/8/5 75/9/5 79/7/5
f 77/5/4 75/10/4 74/11/4
f 76/12/2 80/8/2 78/6/2
f 73/1/3 76/4/3 74/2/3
f 76/4/6 78/6/6 77/5/6
f 78/6/1 80/8/1 79/7/1
f 80/8/5 73/13/5 75/9/5
f 77/5/4 79/7/4 75/10/4
f 76/12/2 73/14/2 80/8/2
f 81/1/1 82/2/1 83/3/1
f 84/4/2 85/5/2 82/2/2
f 86/6/3 87/7/3 85/5/3
f 88/8/4 83/9/4 87/7/4
f 85/5/5 83/10/5 82/11/5
f 89/2/3 90/1/3 91/3/3
f 92/5/2 93/4/2 89/2/2
f 94/7/1 95/6/1 92/5/1
f 91/9/4 96/8/4 94/7/4
f 91/10/5 92/5/5 89/11/5
f 97/2/1 81/1/1 98/3/1
f 99/5/2 84/4/2 97/2/2
f 100/7/3 86/6/3 99/5/3
f 98/9/4 88/8/4 100/7/4
f 98/10/6 99/5/6 97/11/6
f 88/8/5 84/12/5 86/6/5
f 90/1/3 101/2/3 102/3/3
f 93/4/2 103/5/2 101/2/2
f 95/6/1 104/7/1 103/5/1
f 96/8/4 102/9/4 104/7/4
f 103/5/6 102/10/6 101/11/6
f 93/12/5 96/8/5 95/6/5
f 81/1/1 84/4/1 82/2/1
f 84/4/2 86/6/2 85/5/2
f 86/6/3 88/8/3 87/7/3
f 88/8/4 81/13/4 83/9/4
f 85/5/5 87/7/5 83/10/5
f 89/2/3 93/4/3 90/1/3
f 92/5/2 95/6/2 93/4/2
f 94/7/1 96/8/1 95/6/1
f 91/9/4 90/13/4 96/8/4
f 91/10/5 94/7/5 92/5/5
f 97/2/1 84/4/1 81/1/1
f 99/5/2 86/6/2 84/4/2
f 100/7/3 88/8/3 86/6/3
f 98/9/4 81/13/4 88/8/4
f 98/10/6 100/7/6 99/5/6
f 88/8/5 81/14/5 84/12/5
f 90/1/3 93/4/3 101/2/3
f 93/4/2 95/6/2 103/5/2
f 95/6/1 96/8/1 104/7/1
f 96/8/4 90/13/4 102/9/4
f 103/5/6 104/7/6 102/10/6
f 93/12/5 90/14/5 96/8/5
f 105/15/3 106/15/3 107/15/3
f 108/15/5 109/15/5 110/15/5
f 111/15/2 112/15/2 108/15/2
f 113/15/6 114/15/6 111/15/6
f 110/15/4 115/15/4 113/15/4
f 110/15/1 111/15/1 108/15/1
f 115/15/3 112/15/3 114/15/3
f 116/15/1 117/15/1 118/15/1
f 119/15/5 120/15/5 121/15/5
f 122/15/2 123/15/2 120/15/2
f 124/15/6 125/15/6 123/15/6
f 126/15/4 121/15/4 125/15/4
f 123/15/3 121/15/3 120/15/3
f 122/15/1 126/15/1 124/15/1
f 105/15/3 127/15/3 106/15/3
f 108/15/5 112/15/5 109/15/5
f 111/15/2 114/15/2 112/15/2
f 113/15/6 115/15/6 114/15/6
f 110/15/4 109/15/4 115/15/4
f 110/15/1 113/15/1 111/15/1
f 115/15/3 109/15/3 112/15/3
f 116/15/1 128/15/1 117/15/1
f 119/15/5 122/15/5 120/15/5
f 122/15/2 124/15/2 123/15/2
f 124/15/6 126/15/6 125/15/6
f 126/15/4 119/15/4 121/15/4
f 123/15/3 125/15/3 121/15/3
f 122/15/1 119/15/1 126/15/1
f 129/2/1 130/1/1 131/3/1
f 132/5/6 133/4/6 129/2/6
f 134/7/3 135/6/3 132/5/3
f 131/9/5 136/8/5 134/7/5
f 131/10/4 132/5/4 129/11/4
f 136/8/2 133/12/2 135/6/2
f 129/2/1 133/4/1 130/1/1
f 132/5/6 135/6/6 133/4/6
f 134/7/3 136/8/3 135/6/3
f 131/9/5 130/13/5 136/8/5
f 131/10/4 134/7/4 132/5/4
f 136/8/2 130/14/2 133/12/2
f 137/1/1 138/2/1 139/3/1
f 140/4/5 141/5/5 138/2/5
f 142/6/3 143/7/3 141/5/3
f 144/8/6 139/9/6 143/7/6
f 141/5/4 139/10/4 138/11/4
f 140/12/2 144/8/2 142/6/2
f 137/1/1 140/4/1 138/2/1
f 140/4/5 142/6/5 141/5/5
f 142/6/3 144/8/3 143/7/3
f 144/8/6 137/13/6 139/9/6
f 141/5/4 143/7/4 139/10/4
f 140/12/2 137/14/2 144/8/2
f 145/2/3 146/1/3 147/3/3
f 148/5/5 149/4/5 145/2/5
f 150/7/1 151/6/1 148/5/1
f 147/9/6 152/8/6 150/7/6
f 147/10/4 148/5/4 145/11/4
f 152/8/2 149/12/2 151/6/2
f 145/2/3 149/4/3 146/1/3
f 148/5/5 151/6/5 149/4/5
f 150/7/1 152/8/1 151/6/1
f 147/9/6 146/13/6 152/8/6
f 147/10/4 150/7/4 148/5/4
f 152/8/2 146/14/2 149/12/2
f 153/1/3 154/2/3 155/3/3
f 156/4/6 157/5/6 154/2/6
f 158/6/1 159/7/1 157/5/1
f 160/8/5 155/9/5 159/7/5
f 157/5/4 155/10/4 154/11/4
f 156/12/2 160/8/2 158/6/2
f 153/1/3 156/4/3 154/2/3
f 156/4/6 158/6/6 157/5/6
f 158/6/1 160/8/1 159/7/1
f 160/8/5 153/13/5 155/9/5
f 157/5/4 159/7/4 155/10/4
f 156/12/2 153/14/2 160/8/2
f 161/1/1 162/2/1 163/3/1
f 164/4/2 165/5/2 162/2/2
f 166/6/3 167/7/3 165/5/3
f 168/8/4 163/9/4 167/7/4
f 165/5/5 163/10/5 162/11/5
f 169/2/3 170/1/3 171/3/3
f 172/5/2 173/4/2 169/2/2
f 174/7/1 175/6/1 172/5/1
f 171/9/4 176/8/4 174/7/4
f 171/10/5 172/5/5 169/11/5
f 177/2/1 161/1/1 178/3/1
f 179/5/2 164/4/2 177/2/2
f 180/7/3 166/6/3 179/5/3
f 178/9/4 168/8/4 180/7/4
f 178/10/6 179/5/6 177/11/6
f 168/8/5 164/12/5 166/6/5
f 170/1/3 181/2/3 182/3/3
f 173/4/2 183/5/2 181/2/2
f 175/6/1 184/7/1 183/5/1
f 176/8/4 182/9/4 184/7/4
f 183/5/6 182/10/6 181/11/6
f 173/12/5 176/8/5 175/6/5
f 161/1/1 164/4/1 162/2/1
f 164/4/2 166/6/2 165/5/2
f 166/6/3 168/8/3 167/7/3
f 168/8/4 161/13/4 163/9/4
f 165/5/5 167/7/5 163/10/5
f 169/2/3 173/4/3 170/1/3
f 172/5/2 175/6/2 173/4/2
f 174/7/1 176/8/1 175/6/1
f 171/9/4 170/13/4 176/8/4
f 171/10/5 174/7/5 172/5/5
f 177/2/1 164/4/1 161/1/1
f 179/5/2 166/6/2 164/4/2
f 180/7/3 168/8/3 166/6/3
f 178/9/4 161/13/4 168/8/4
f 178/10/6 180/7/6 179/5/6
f 168/8/5 161/14/5 164/12/5
f 170/1/3 173/4/3 181/2/3
f 173/4/2 175/6/2 183/5/2
f 175/6/1 176/8/1 184/7/1
f 176/8/4 170/13/4 182/9/4
f 183/5/6 184/7/6 182/10/6
f 173/12/5 170/14/5 176/8/5
f 185/15/6 186/15/6 187/15/6
f 188/15/2 189/15/2 186/15/2
f 190/15/5 191/15/5 189/15/5
f 192/15/4 187/15/4 191/15/4
f 189/15/1 187/15/1 186/15/1
f 188/15/3 192/15/3 190/15/3
f 193/15/5 194/15/5 195/15/5
f 196/15/2 197/15/2 193/15/2
f 198/15/6 199/15/6 196/15/6
f 195/15/4 200/15/4 198/15/4
f 195/15/1 196/15/1 193/15/1
f 200/15/3 197/15/3 199/15/3
f 201/15/6 202/15/6 203/15/6
f 204/15/2 205/15/2 201/15/2
f 206/15/5 207/15/5 204/15/5
f 203/15/4 208/15/4 206/15/4
f 203/15/3 204/15/3 201/15/3
f 208/15/1 205/15/1 207/15/1
f 209/15/5 210/15/5 211/15/5
f 212/15/2 213/15/2 210/15/2
f 214/15/6 215/15/6 213/15/6
f 216/15/4 211/15/4 215/15/4
f 213/15/3 211/15/3 210/15/3
f 212/15/1 216/15/1 214/15/1
f 185/15/6 188/15/6 186/15/6
f 188/15/2 190/15/2 189/15/2
f 190/15/5 192/15/5 191/15/5
f 192/15/4 185/15/4 187/15/4
f 189/15/1 191/15/1 187/15/1
f 188/15/3 185/15/3 192/15/3
f 193/15/5 197/15/5 194/15/5
f 196/15/2 199/15/2 197/15/2
f 198/15/6 200/15/6 199/15/6
f 195/15/4 194/15/4 200/15/4
f 195/15/1 198/15/1 196/15/1
f 200/15/3 194/15/3 197/15/3
f 201/15/6 205/15/6 202/15/6
f 204/15/2 207/15/2 205/15/2
f 206/15/5 208/15/5 207/15/5
f 203/15/4 202/15/4 208/15/4
f 203/15/3 206/15/3 204/15/3
f 208/15/1 202/15/1 205/15/1
f 209/15/5 212/15/5 210/15/5
f 212/15/2 214/15/2 213/15/2
f 214/15/6 216/15/6 215/15/6
f 216/15/4 209/15/4 211/15/4
f 213/15/3 215/15/3 211/15/3
f 212/15/1 209/15/1 216/15/1
f 217/1/1 218/2/1 219/3/1
f 220/4/2 221/5/2 218/2/2
f 222/6/3 223/7/3 221/5/3
f 224/8/4 219/9/4 223/7/4
f 221/5/5 219/10/5 218/11/5
f 225/2/3 226/1/3 227/3/3
f 228/5/2 229/4/2 225/2/2
f 230/7/1 231/6/1 228/5/1
f 227/9/4 232/8/4 230/7/4
f 227/10/5 228/5/5 225/11/5
f 233/2/1 217/1/1 234/3/1
f 235/5/2 220/4/2 233/2/2
f 236/7/3 222/6/3 235/5/3
f 234/9/4 224/8/4 236/7/4
f 234/10/6 235/5/6 233/11/6
f 224/8/5 220/12/5 222/6/5
f 226/1/3 237/2/3 238/3/3
f 229/4/2 239/5/2 237/2/2
f 231/6/1 240/7/1 239/5/1
f 232/8/4 238/9/4 240/7/4
f 239/5/6 238/10/6 237/11/6
f 229/12/5 232/8/5 231/6/5
f 217/1/1 220/4/1 218/2/1
f 220/4/2 222/6/2 221/5/2
f 222/6/3 224/8/3 223/7/3
f 224/8/4 217/13/4 219/9/4
f 221/5/5 223/7/5 219/10/5
f 225/2/3 229/4/3 226/1/3
f 228/5/2 231/6/2 229/4/2
f 230/7/1 232/8/1 231/6/1
f 227/9/4 226/13/4 232/8/4
f 227/10/5 230/7/5 228/5/5
f 233/2/1 220/4/1 217/1/1
f 235/5/2 222/6/2 220/4/2
f 236/7/3 224/8/3 222/6/3
f 234/9/4 217/13/4 224/8/4
f 234/10/6 236/7/6 235/5/6
f 224/8/5 217/14/5 220/12/5
f 226/1/3 229/4/3 237/2/3
f 229/4/2 231/6/2 239/5/2
f 231/6/1 232/8/1 240/7/1
f 232/8/4 226/13/4 238/9/4
f 239/5/6 240/7/6 238/10/6
f 229/12/5 226/14/5 232/8/5
f 241/15/3 242/15/3 243/15/3
f 244/15/5 245/15/5 246/15/5
f 247/15/2 248/15/2 244/15/2
f 249/15/6 250/15/6 247/15/6
f 246/15/4 251/15/4 249/15/4
f 246/15/1 247/15/1 244/15/1
f 251/15/3 248/15/3 250/15/3
f 252/15/1 253/15/1 254/15/1
f 255/15/5 256/15/5 257/15/5
f 258/15/2 259/15/2 256/15/2
f 260/15/6 261/15/6 259/15/6
f 262/15/4 257/15/4 261/15/4
f 259/15/3 257/15/3 256/15/3
f 258/15/1 262/15/1 260/15/1
f 241/15/3 263/15/3 242/15/3
f 244/15/5 248/15/5 245/15/5
f 247/15/2 250/15/2 248/15/2
f 249/15/6 251/15/6 250/15/6
f 246/15/4 245/15/4 251/15/4
f 246/15/1 249/15/1 247/15/1
f 251/15/3 245/15/3 248/15/3
f 252/15/1 264/15/1 253/15/1
f 255/15/5 258/15/5 256/15/5
f 258/15/2 260/15/2 259/15/2
f 260/15/6 262/15/6 261/15/6
f 262/15/4 255/15/4 257/15/4
f 259/15/3 261/15/3 257/15/3
f 258/15/1 255/15/1 262/15/1
f 265/2/1 266/1/1 267/3/1
f 268/5/6 269/4/6 265/2/6
f 270/7/3 271/6/3 268/5/3
f 267/9/5 272/8/5 270/7/5
f 267/10/4 268/5/4 265/11/4
f 272/8/2 269/12/2 271/6/2
f 265/2/1 269/4/1 266/1/1
f 268/5/6 271/6/6 269/4/6
f 270/7/3 272/8/3 271/6/3
f 267/9/5 266/13/5 272/8/5
f 267/10/4 270/7/4 268/5/4
f 272/8/2 266/14/2 269/12/2
f 273/1/1 274/2/1 275/3/1
f 276/4/5 277/5/5 274/2/5
f 278/6/3 279/7/3 277/5/3
f 280/8/6 275/9/6 279/7/6
f 277/5/4 275/10/4 274/11/4
f 276/12/2 280/8/2 278/6/2
f 273/1/1 276/4/1 274/2/1
f 276/4/5 278/6/5 277/5/5
f 278/6/3 280/8/3 279/7/3
f 280/8/6 273/13/6 275/9/6
f 277/5/4 279/7/4 275/10/4
f 276/12/2 273/14/2 280/8/2
f 281/2/3 282/1/3 283/3/3
f 284/5/5 285/4/5 281/2/5
f 286/7/1 287/6/1 284/5/1
f 283/9/6 288/8/6 286/7/6
f 283/10/4 284/5/4 281/11/4
f 288/8/2 285/12/2 287/6/2
f 281/2/3 285/4/3 282/1/3
f 284/5/5 287/6/5 285/4/5
f 286/7/1 288/8/1 287/6/1
f 283/9/6 282/13/6 288/8/6
f 283/10/4 286/7/4 284/5/4
f 288/8/2 282/14/2 285/12/2
